<?xml version="1.0" encoding="utf-8"?>
<!-- Generator: Adobe Illustrator 28.3.0, SVG Export Plug-In . SVG Version: 6.00 Build 0)  -->
<svg version="1.1" id="Layer_1" xmlns="http://www.w3.org/2000/svg" xmlns:xlink="http://www.w3.org/1999/xlink" x="0px" y="0px"
	 viewBox="0 0 3046.9 1494.3" style="enable-background:new 0 0 3046.9 1494.3;" xml:space="preserve">
<style type="text/css">
	.st0{fill:#FFFFFF;}
</style>
<g>
	<g>
		<path class="st0" d="M1019.1,572.7v345.6h-70.5V572.7H1019.1z"/>
		<path class="st0" d="M1306.2,685.1v233.6c0,72.4-56.5,116.8-125.5,116.8c-66.6,0-116.3-41.5-121.1-99.9l70,0.5
			c2.9,24.6,24.6,35.7,53.6,35.7c27,0,52.6-14.5,52.6-52.6v-29.4c-17.9,11.6-41,18.3-66.6,18.3c-64.2,0-115.8-52.1-115.8-112
			c0-69.5,51.6-116.3,115.8-116.3c25.6,0,48.7,6.8,66.6,18.3v-12.5L1306.2,685.1z M1235.8,822.7v-57c-14.5-20.8-34.3-28-54.1-28
			c-34.8,0-58.4,23.2-58.4,58.4c0,26.1,24.1,54.1,58.4,54.1C1201.5,850.7,1221.8,843.4,1235.8,822.7z"/>
		<path class="st0" d="M1587.1,799c0,71.9-53.1,123.1-124.5,123.1c-71.9,0-125-51.2-125-123.1c0-71.4,53.1-123.6,125-123.6
			C1534.1,675.5,1587.1,727.6,1587.1,799z M1519.1,799c0-33.8-22.2-61.3-56.5-61.3c-34.8,0-57,27.5-57,61.3
			c0,34.7,22.2,60.8,57,60.8C1496.9,859.4,1519.1,833.8,1519.1,799z"/>
		<path class="st0" d="M2024.4,685.6v232.1l-69,0.5v-13c-17.9,11.6-41,18.8-66.6,18.8c-64.2,0-115.8-54.5-115.8-121.6
			c0-67.6,51.6-122.1,115.8-122.1c25.6,0,48.7,7.2,66.6,18.8v-13L2024.4,685.6z M1954.9,837.6v-70.9c-14.5-20.8-34.8-26.5-55-26.5
			c-35.2,0-59.8,28.5-59.8,62.3c0,33.3,24.6,61.8,59.8,61.8C1920.2,864.2,1940.4,858.4,1954.9,837.6z"/>
		<path class="st0" d="M2308.2,792.3v126h-68.1V800.5c0-38.1-18.8-57.9-52.6-57.9c-17.4,0-37.2,10.1-53.6,29.4v146.2h-69.5V686.1
			h69.5v17.4c18.8-15,41-23.2,67.1-23.2C2262.8,680.3,2308.2,723.7,2308.2,792.3L2308.2,792.3z"/>
		<path class="st0" d="M916.3,917.8h-71.4L798,744.5L697.6,917.8h-80.1l154.9-268.3l-25.1-93.6l-209,362h-80.1l265-459h70.5
			l30.4,114.4h72.4l-49.2,85.9L916.3,917.8z"/>
		<path class="st0" d="M2588.6,572.7v345.6h-70.5v-13c-17.9,11.6-41,18.8-66.6,18.8c-64.2,0-115.8-54.5-115.8-122.1
			c0-67.1,51.6-121.6,115.8-121.6c25.6,0,48.7,7.2,66.6,18.8V572.7H2588.6z M2518.2,837.6v-71.4c-14.5-20.8-35.2-26.5-55.5-26.5
			c-35.7,0-60.3,28.5-60.3,62.3c0,34.3,24.6,62.7,60.3,62.7C2482.9,864.7,2503.2,858.9,2518.2,837.6L2518.2,837.6z"/>
		<path class="st0" d="M1759.9,744.5c-15.4,1.9-51.2,3.9-72.4,32.8v140.9H1618V686.6h69.5v17.4c15.9-13.5,39.6-21.7,72.4-18.3V744.5
			z"/>
	</g>
</g>
</svg>
