<?xml version="1.0" standalone="no"?>
<!DOCTYPE svg PUBLIC "-//W3C//DTD SVG 20010904//EN"
 "http://www.w3.org/TR/2001/REC-SVG-20010904/DTD/svg10.dtd">
<svg version="1.0" xmlns="http://www.w3.org/2000/svg"
 width="1024.000000pt" height="1024.000000pt" viewBox="200 200 650 650"
 preserveAspectRatio="xMidYMid meet">
<metadata>
Created by potrace 1.16, written by Peter Selinger 2001-2019
</metadata>
<g transform="translate(0.000000,1024.000000) scale(0.100000,-0.100000)"
fill="#ffffff" stroke="none">
<path d="M6146 8078 c-10 -6 -247 -237 -525 -514 l-505 -503 -56 51 c-30 28
-147 142 -260 253 -113 111 -216 207 -228 214 -38 20 -63 7 -145 -78 -68 -70
-77 -83 -77 -116 0 -34 9 -46 78 -116 210 -212 569 -550 597 -564 45 -21 142
-20 182 3 32 17 331 310 869 853 279 281 284 287 284 327 0 45 -7 55 -100 139
-61 56 -86 67 -114 51z"/>
<path d="M3093 6469 c-10 -10 -13 -281 -13 -1285 0 -1376 0 -1376 54 -1600 56
-230 144 -386 326 -578 104 -109 201 -185 440 -345 113 -75 359 -241 547 -369
420 -285 586 -392 637 -409 36 -13 43 -12 90 11 29 14 143 85 253 158 111 73
343 225 514 338 172 113 356 236 408 274 246 179 455 377 553 526 161 245 214
436 223 805 3 110 7 695 10 1300 4 993 1 1170 -18 1176 -1 0 -904 3 -2007 6
-1648 4 -2007 3 -2017 -8z m3684 -364 c14 -18 15 -140 9 -1110 -3 -679 -10
-1124 -16 -1180 -51 -419 -242 -652 -881 -1071 -107 -70 -301 -198 -431 -285
-289 -193 -331 -215 -367 -199 -42 19 -1005 665 -1131 759 -232 172 -412 385
-464 549 -73 233 -78 321 -74 1518 3 970 4 1003 22 1023 l19 21 1649 -2 c1636
-3 1650 -3 1665 -23z"/>
<path d="M3814 5749 c-13 -20 -17 -570 -5 -589 8 -12 39 -15 168 -15 l158 0
10 120 c6 66 14 126 18 133 7 10 163 13 805 12 788 -1 897 -4 886 -22 -3 -5
-74 -70 -158 -146 -84 -75 -314 -283 -512 -462 -197 -179 -435 -393 -529 -474
-93 -82 -231 -206 -305 -275 -74 -69 -219 -202 -322 -295 -103 -93 -185 -172
-183 -176 5 -8 185 -148 403 -314 64 -48 285 -200 490 -338 298 -199 378 -248
395 -242 40 12 798 512 962 635 114 85 221 196 262 275 64 119 68 157 68 571
0 204 -3 375 -8 379 -4 4 -24 -8 -45 -28 -20 -20 -95 -81 -167 -138 l-129
-102 3 -251 c3 -250 2 -252 -21 -287 -26 -38 -54 -61 -258 -209 -165 -121
-655 -441 -674 -441 -20 0 -637 426 -736 507 -9 8 267 257 695 629 132 114
364 323 515 465 151 141 369 341 485 445 115 104 237 214 270 245 l60 57 3
138 c2 75 1 151 -2 168 l-6 31 -1294 4 c-1086 3 -1295 1 -1302 -10z"/>
</g>
</svg>
